<mxfile host="Electron" modified="2024-09-21T21:54:29.022Z" agent="Mozilla/5.0 (Macintosh; Intel Mac OS X 10_15_7) AppleWebKit/537.36 (KHTML, like Gecko) draw.io/22.1.18 Chrome/120.0.6099.199 Electron/28.1.2 Safari/537.36" etag="2QrbcuclJoV2yZnUcT6d" version="22.1.18" type="device" pages="5">
  <diagram name="Page-1" id="2z73DCdU1QT6Ai-CfpeX">
    <mxGraphModel dx="817" dy="1674" grid="1" gridSize="10" guides="1" tooltips="1" connect="1" arrows="1" fold="1" page="1" pageScale="1" pageWidth="850" pageHeight="1100" math="0" shadow="0">
      <root>
        <mxCell id="0" />
        <mxCell id="1" parent="0" />
        <mxCell id="DSjaal-3AEKrCCzgYivw-30" value="AWS Account" style="points=[[0,0],[0.25,0],[0.5,0],[0.75,0],[1,0],[1,0.25],[1,0.5],[1,0.75],[1,1],[0.75,1],[0.5,1],[0.25,1],[0,1],[0,0.75],[0,0.5],[0,0.25]];outlineConnect=0;gradientColor=none;html=1;whiteSpace=wrap;fontSize=12;fontStyle=0;container=1;pointerEvents=0;collapsible=0;recursiveResize=0;shape=mxgraph.aws4.group;grIcon=mxgraph.aws4.group_account;strokeColor=#CD2264;fillColor=none;verticalAlign=top;align=left;spacingLeft=30;fontColor=#CD2264;dashed=0;" vertex="1" parent="1">
          <mxGeometry x="80" y="-1100" width="420" height="390" as="geometry" />
        </mxCell>
        <mxCell id="DSjaal-3AEKrCCzgYivw-47" value="" style="sketch=0;points=[[0,0,0],[0.25,0,0],[0.5,0,0],[0.75,0,0],[1,0,0],[0,1,0],[0.25,1,0],[0.5,1,0],[0.75,1,0],[1,1,0],[0,0.25,0],[0,0.5,0],[0,0.75,0],[1,0.25,0],[1,0.5,0],[1,0.75,0]];outlineConnect=0;fontColor=#232F3E;fillColor=#C925D1;strokeColor=#ffffff;dashed=0;verticalLabelPosition=bottom;verticalAlign=top;align=center;html=1;fontSize=12;fontStyle=0;aspect=fixed;shape=mxgraph.aws4.resourceIcon;resIcon=mxgraph.aws4.dynamodb;" vertex="1" parent="DSjaal-3AEKrCCzgYivw-30">
          <mxGeometry x="140" y="10" width="40" height="40" as="geometry" />
        </mxCell>
        <mxCell id="DSjaal-3AEKrCCzgYivw-48" value="DynamoDB" style="text;html=1;strokeColor=none;fillColor=none;align=center;verticalAlign=middle;whiteSpace=wrap;rounded=0;" vertex="1" parent="DSjaal-3AEKrCCzgYivw-30">
          <mxGeometry x="130" y="50" width="60" height="20" as="geometry" />
        </mxCell>
        <mxCell id="DSjaal-3AEKrCCzgYivw-92" value="" style="sketch=0;points=[[0,0,0],[0.25,0,0],[0.5,0,0],[0.75,0,0],[1,0,0],[0,1,0],[0.25,1,0],[0.5,1,0],[0.75,1,0],[1,1,0],[0,0.25,0],[0,0.5,0],[0,0.75,0],[1,0.25,0],[1,0.5,0],[1,0.75,0]];outlineConnect=0;fontColor=#232F3E;fillColor=#01A88D;strokeColor=#ffffff;dashed=0;verticalLabelPosition=bottom;verticalAlign=top;align=center;html=1;fontSize=12;fontStyle=0;aspect=fixed;shape=mxgraph.aws4.resourceIcon;resIcon=mxgraph.aws4.bedrock;" vertex="1" parent="DSjaal-3AEKrCCzgYivw-30">
          <mxGeometry x="245" y="10" width="40" height="40" as="geometry" />
        </mxCell>
        <mxCell id="DSjaal-3AEKrCCzgYivw-93" value="Amazon Bedrock" style="text;html=1;strokeColor=none;fillColor=none;align=center;verticalAlign=middle;whiteSpace=wrap;rounded=0;" vertex="1" parent="DSjaal-3AEKrCCzgYivw-30">
          <mxGeometry x="215" y="50" width="100" height="20" as="geometry" />
        </mxCell>
        <mxCell id="DSjaal-3AEKrCCzgYivw-96" value="VPC" style="points=[[0,0],[0.25,0],[0.5,0],[0.75,0],[1,0],[1,0.25],[1,0.5],[1,0.75],[1,1],[0.75,1],[0.5,1],[0.25,1],[0,1],[0,0.75],[0,0.5],[0,0.25]];outlineConnect=0;gradientColor=none;html=1;whiteSpace=wrap;fontSize=12;fontStyle=0;container=1;pointerEvents=0;collapsible=0;recursiveResize=0;shape=mxgraph.aws4.group;grIcon=mxgraph.aws4.group_vpc2;strokeColor=#8C4FFF;fillColor=none;verticalAlign=top;align=left;spacingLeft=30;fontColor=#AAB7B8;dashed=0;" vertex="1" parent="DSjaal-3AEKrCCzgYivw-30">
          <mxGeometry x="50" y="90" width="330" height="210" as="geometry" />
        </mxCell>
        <mxCell id="DSjaal-3AEKrCCzgYivw-98" value="" style="sketch=0;outlineConnect=0;fontColor=#232F3E;gradientColor=none;fillColor=#8C4FFF;strokeColor=none;dashed=0;verticalLabelPosition=bottom;verticalAlign=top;align=center;html=1;fontSize=12;fontStyle=0;aspect=fixed;pointerEvents=1;shape=mxgraph.aws4.endpoints;" vertex="1" parent="DSjaal-3AEKrCCzgYivw-96">
          <mxGeometry x="100" y="6" width="30" height="30" as="geometry" />
        </mxCell>
        <mxCell id="DSjaal-3AEKrCCzgYivw-102" style="edgeStyle=orthogonalEdgeStyle;rounded=0;orthogonalLoop=1;jettySize=auto;html=1;startArrow=classic;startFill=1;" edge="1" parent="DSjaal-3AEKrCCzgYivw-96" source="DSjaal-3AEKrCCzgYivw-61" target="DSjaal-3AEKrCCzgYivw-98">
          <mxGeometry relative="1" as="geometry" />
        </mxCell>
        <mxCell id="DSjaal-3AEKrCCzgYivw-105" style="edgeStyle=orthogonalEdgeStyle;rounded=0;orthogonalLoop=1;jettySize=auto;html=1;startArrow=classic;startFill=1;" edge="1" parent="DSjaal-3AEKrCCzgYivw-96" source="DSjaal-3AEKrCCzgYivw-61" target="DSjaal-3AEKrCCzgYivw-100">
          <mxGeometry relative="1" as="geometry">
            <Array as="points">
              <mxPoint x="215" y="80" />
            </Array>
          </mxGeometry>
        </mxCell>
        <mxCell id="DSjaal-3AEKrCCzgYivw-61" value="" style="sketch=0;points=[[0,0,0],[0.25,0,0],[0.5,0,0],[0.75,0,0],[1,0,0],[0,1,0],[0.25,1,0],[0.5,1,0],[0.75,1,0],[1,1,0],[0,0.25,0],[0,0.5,0],[0,0.75,0],[1,0.25,0],[1,0.5,0],[1,0.75,0]];outlineConnect=0;fontColor=#232F3E;fillColor=#ED7100;strokeColor=#ffffff;dashed=0;verticalLabelPosition=bottom;verticalAlign=top;align=center;html=1;fontSize=12;fontStyle=0;aspect=fixed;shape=mxgraph.aws4.resourceIcon;resIcon=mxgraph.aws4.lambda;" vertex="1" parent="DSjaal-3AEKrCCzgYivw-96">
          <mxGeometry x="150" y="60" width="40" height="40" as="geometry" />
        </mxCell>
        <mxCell id="DSjaal-3AEKrCCzgYivw-108" style="edgeStyle=orthogonalEdgeStyle;rounded=0;orthogonalLoop=1;jettySize=auto;html=1;startArrow=classic;startFill=1;" edge="1" parent="DSjaal-3AEKrCCzgYivw-96" source="DSjaal-3AEKrCCzgYivw-35" target="DSjaal-3AEKrCCzgYivw-101">
          <mxGeometry relative="1" as="geometry" />
        </mxCell>
        <mxCell id="DSjaal-3AEKrCCzgYivw-35" value="ConverseSQLAgent&lt;br&gt;&lt;b&gt;AWS Lambda&lt;/b&gt;" style="text;html=1;strokeColor=none;fillColor=none;align=center;verticalAlign=middle;whiteSpace=wrap;rounded=0;" vertex="1" parent="DSjaal-3AEKrCCzgYivw-96">
          <mxGeometry x="115" y="100" width="110" height="30" as="geometry" />
        </mxCell>
        <mxCell id="DSjaal-3AEKrCCzgYivw-100" value="" style="sketch=0;outlineConnect=0;fontColor=#232F3E;gradientColor=none;fillColor=#8C4FFF;strokeColor=none;dashed=0;verticalLabelPosition=bottom;verticalAlign=top;align=center;html=1;fontSize=12;fontStyle=0;aspect=fixed;pointerEvents=1;shape=mxgraph.aws4.endpoints;" vertex="1" parent="DSjaal-3AEKrCCzgYivw-96">
          <mxGeometry x="200" y="6" width="30" height="30" as="geometry" />
        </mxCell>
        <mxCell id="DSjaal-3AEKrCCzgYivw-101" value="" style="sketch=0;outlineConnect=0;fontColor=#232F3E;gradientColor=none;fillColor=#8C4FFF;strokeColor=none;dashed=0;verticalLabelPosition=bottom;verticalAlign=top;align=center;html=1;fontSize=12;fontStyle=0;aspect=fixed;pointerEvents=1;shape=mxgraph.aws4.endpoints;" vertex="1" parent="DSjaal-3AEKrCCzgYivw-96">
          <mxGeometry x="155" y="160" width="30" height="30" as="geometry" />
        </mxCell>
        <mxCell id="DSjaal-3AEKrCCzgYivw-52" value="" style="sketch=0;points=[[0,0,0],[0.25,0,0],[0.5,0,0],[0.75,0,0],[1,0,0],[0,1,0],[0.25,1,0],[0.5,1,0],[0.75,1,0],[1,1,0],[0,0.25,0],[0,0.5,0],[0,0.75,0],[1,0.25,0],[1,0.5,0],[1,0.75,0]];outlineConnect=0;fontColor=#232F3E;fillColor=#C925D1;strokeColor=#ffffff;dashed=0;verticalLabelPosition=bottom;verticalAlign=top;align=center;html=1;fontSize=12;fontStyle=0;aspect=fixed;shape=mxgraph.aws4.resourceIcon;resIcon=mxgraph.aws4.rds;" vertex="1" parent="DSjaal-3AEKrCCzgYivw-96">
          <mxGeometry x="270" y="60" width="40" height="40" as="geometry" />
        </mxCell>
        <mxCell id="DSjaal-3AEKrCCzgYivw-53" value="RDS" style="text;html=1;strokeColor=none;fillColor=none;align=center;verticalAlign=middle;whiteSpace=wrap;rounded=0;" vertex="1" parent="DSjaal-3AEKrCCzgYivw-96">
          <mxGeometry x="260" y="100" width="60" height="20" as="geometry" />
        </mxCell>
        <mxCell id="DSjaal-3AEKrCCzgYivw-112" style="edgeStyle=orthogonalEdgeStyle;rounded=0;orthogonalLoop=1;jettySize=auto;html=1;entryX=0;entryY=0.75;entryDx=0;entryDy=0;entryPerimeter=0;startArrow=classic;startFill=1;" edge="1" parent="DSjaal-3AEKrCCzgYivw-96" source="DSjaal-3AEKrCCzgYivw-61" target="DSjaal-3AEKrCCzgYivw-52">
          <mxGeometry relative="1" as="geometry">
            <Array as="points">
              <mxPoint x="210" y="90" />
              <mxPoint x="210" y="90" />
            </Array>
          </mxGeometry>
        </mxCell>
        <mxCell id="DSjaal-3AEKrCCzgYivw-113" value="&lt;font style=&quot;font-size: 8px;&quot;&gt;&lt;b&gt;VPC Endpoint&lt;/b&gt;&lt;/font&gt;" style="text;html=1;strokeColor=none;fillColor=none;align=center;verticalAlign=middle;whiteSpace=wrap;rounded=0;" vertex="1" parent="DSjaal-3AEKrCCzgYivw-96">
          <mxGeometry x="230" y="6" width="60" height="30" as="geometry" />
        </mxCell>
        <mxCell id="DSjaal-3AEKrCCzgYivw-104" style="edgeStyle=orthogonalEdgeStyle;rounded=0;orthogonalLoop=1;jettySize=auto;html=1;entryX=0.583;entryY=1;entryDx=0;entryDy=0;entryPerimeter=0;startArrow=classic;startFill=1;" edge="1" parent="DSjaal-3AEKrCCzgYivw-30" source="DSjaal-3AEKrCCzgYivw-98" target="DSjaal-3AEKrCCzgYivw-48">
          <mxGeometry relative="1" as="geometry" />
        </mxCell>
        <mxCell id="DSjaal-3AEKrCCzgYivw-106" style="edgeStyle=orthogonalEdgeStyle;rounded=0;orthogonalLoop=1;jettySize=auto;html=1;entryX=0.5;entryY=1;entryDx=0;entryDy=0;startArrow=classic;startFill=1;" edge="1" parent="DSjaal-3AEKrCCzgYivw-30" source="DSjaal-3AEKrCCzgYivw-100" target="DSjaal-3AEKrCCzgYivw-93">
          <mxGeometry relative="1" as="geometry" />
        </mxCell>
        <mxCell id="DSjaal-3AEKrCCzgYivw-58" value="" style="sketch=0;points=[[0,0,0],[0.25,0,0],[0.5,0,0],[0.75,0,0],[1,0,0],[0,1,0],[0.25,1,0],[0.5,1,0],[0.75,1,0],[1,1,0],[0,0.25,0],[0,0.5,0],[0,0.75,0],[1,0.25,0],[1,0.5,0],[1,0.75,0]];outlineConnect=0;fontColor=#232F3E;fillColor=#DD344C;strokeColor=#ffffff;dashed=0;verticalLabelPosition=bottom;verticalAlign=top;align=center;html=1;fontSize=12;fontStyle=0;aspect=fixed;shape=mxgraph.aws4.resourceIcon;resIcon=mxgraph.aws4.secrets_manager;" vertex="1" parent="DSjaal-3AEKrCCzgYivw-30">
          <mxGeometry x="200" y="320" width="40" height="40" as="geometry" />
        </mxCell>
        <mxCell id="DSjaal-3AEKrCCzgYivw-60" value="Secrets Manager" style="text;html=1;strokeColor=none;fillColor=none;align=center;verticalAlign=middle;whiteSpace=wrap;rounded=0;" vertex="1" parent="DSjaal-3AEKrCCzgYivw-30">
          <mxGeometry x="170" y="360" width="100" height="20" as="geometry" />
        </mxCell>
        <mxCell id="DSjaal-3AEKrCCzgYivw-109" style="edgeStyle=orthogonalEdgeStyle;rounded=0;orthogonalLoop=1;jettySize=auto;html=1;entryX=0.5;entryY=0;entryDx=0;entryDy=0;entryPerimeter=0;startArrow=classic;startFill=1;" edge="1" parent="DSjaal-3AEKrCCzgYivw-30" source="DSjaal-3AEKrCCzgYivw-101" target="DSjaal-3AEKrCCzgYivw-58">
          <mxGeometry relative="1" as="geometry" />
        </mxCell>
        <mxCell id="DSjaal-3AEKrCCzgYivw-74" value="User" style="shape=umlActor;verticalLabelPosition=bottom;verticalAlign=top;html=1;outlineConnect=0;" vertex="1" parent="1">
          <mxGeometry x="10" y="-956" width="30" height="60" as="geometry" />
        </mxCell>
        <mxCell id="DSjaal-3AEKrCCzgYivw-111" style="edgeStyle=orthogonalEdgeStyle;rounded=0;orthogonalLoop=1;jettySize=auto;html=1;startArrow=classic;startFill=1;" edge="1" parent="1" source="DSjaal-3AEKrCCzgYivw-61" target="DSjaal-3AEKrCCzgYivw-74">
          <mxGeometry relative="1" as="geometry">
            <Array as="points">
              <mxPoint x="100" y="-920" />
              <mxPoint x="100" y="-920" />
            </Array>
          </mxGeometry>
        </mxCell>
      </root>
    </mxGraphModel>
  </diagram>
  <diagram id="ChZfnfTrkwPEBHdRDc5z" name="AgentLoop">
    <mxGraphModel dx="627" dy="440" grid="1" gridSize="10" guides="1" tooltips="1" connect="1" arrows="1" fold="1" page="1" pageScale="1" pageWidth="850" pageHeight="1100" math="0" shadow="0">
      <root>
        <mxCell id="0" />
        <mxCell id="1" parent="0" />
        <mxCell id="iCXz8sfgIMaNUe4EF6_P-27" style="edgeStyle=orthogonalEdgeStyle;rounded=0;orthogonalLoop=1;jettySize=auto;html=1;entryX=0.5;entryY=0;entryDx=0;entryDy=0;" edge="1" parent="1" source="iCXz8sfgIMaNUe4EF6_P-1" target="iCXz8sfgIMaNUe4EF6_P-4">
          <mxGeometry relative="1" as="geometry" />
        </mxCell>
        <mxCell id="iCXz8sfgIMaNUe4EF6_P-1" value="" style="rounded=0;whiteSpace=wrap;html=1;" vertex="1" parent="1">
          <mxGeometry x="190" y="80" width="90" height="50" as="geometry" />
        </mxCell>
        <mxCell id="iCXz8sfgIMaNUe4EF6_P-7" style="edgeStyle=orthogonalEdgeStyle;rounded=0;orthogonalLoop=1;jettySize=auto;html=1;entryX=0.5;entryY=0;entryDx=0;entryDy=0;" edge="1" parent="1" source="iCXz8sfgIMaNUe4EF6_P-4" target="iCXz8sfgIMaNUe4EF6_P-6">
          <mxGeometry relative="1" as="geometry" />
        </mxCell>
        <mxCell id="iCXz8sfgIMaNUe4EF6_P-4" value="Converse API Call&lt;br&gt;&lt;b&gt;Agent&lt;/b&gt;" style="rounded=0;whiteSpace=wrap;html=1;" vertex="1" parent="1">
          <mxGeometry x="170" y="160" width="130" height="50" as="geometry" />
        </mxCell>
        <mxCell id="iCXz8sfgIMaNUe4EF6_P-16" style="edgeStyle=orthogonalEdgeStyle;rounded=0;orthogonalLoop=1;jettySize=auto;html=1;entryX=1;entryY=0.5;entryDx=0;entryDy=0;" edge="1" parent="1" source="iCXz8sfgIMaNUe4EF6_P-6" target="iCXz8sfgIMaNUe4EF6_P-15">
          <mxGeometry relative="1" as="geometry">
            <Array as="points">
              <mxPoint x="320" y="260" />
              <mxPoint x="320" y="121" />
            </Array>
          </mxGeometry>
        </mxCell>
        <mxCell id="iCXz8sfgIMaNUe4EF6_P-18" style="edgeStyle=orthogonalEdgeStyle;rounded=0;orthogonalLoop=1;jettySize=auto;html=1;entryX=1;entryY=0.5;entryDx=0;entryDy=0;" edge="1" parent="1" source="iCXz8sfgIMaNUe4EF6_P-6" target="iCXz8sfgIMaNUe4EF6_P-20">
          <mxGeometry relative="1" as="geometry" />
        </mxCell>
        <mxCell id="iCXz8sfgIMaNUe4EF6_P-6" value="Current Plan&lt;br&gt;&lt;br&gt;Text Outputs&lt;br&gt;&lt;br&gt;Tool Use" style="rounded=0;whiteSpace=wrap;html=1;" vertex="1" parent="1">
          <mxGeometry x="170" y="240" width="130" height="90" as="geometry" />
        </mxCell>
        <mxCell id="iCXz8sfgIMaNUe4EF6_P-14" value="&lt;font style=&quot;font-size: 10px;&quot;&gt;Current Plan&lt;br&gt;&lt;b&gt;Carry-Over&lt;/b&gt;&lt;br&gt;&lt;/font&gt;" style="text;html=1;strokeColor=none;fillColor=none;align=center;verticalAlign=middle;whiteSpace=wrap;rounded=0;" vertex="1" parent="1">
          <mxGeometry x="320" y="170" width="60" height="30" as="geometry" />
        </mxCell>
        <mxCell id="iCXz8sfgIMaNUe4EF6_P-15" value="Current Plan" style="text;html=1;strokeColor=none;fillColor=none;align=center;verticalAlign=middle;whiteSpace=wrap;rounded=0;fontSize=9;" vertex="1" parent="1">
          <mxGeometry x="200" y="116" width="70" height="10" as="geometry" />
        </mxCell>
        <mxCell id="iCXz8sfgIMaNUe4EF6_P-19" style="edgeStyle=orthogonalEdgeStyle;rounded=0;orthogonalLoop=1;jettySize=auto;html=1;" edge="1" parent="1" source="iCXz8sfgIMaNUe4EF6_P-17" target="iCXz8sfgIMaNUe4EF6_P-4">
          <mxGeometry relative="1" as="geometry" />
        </mxCell>
        <mxCell id="iCXz8sfgIMaNUe4EF6_P-17" value="Conversation Messages List" style="rounded=0;whiteSpace=wrap;html=1;" vertex="1" parent="1">
          <mxGeometry x="10" y="160" width="130" height="50" as="geometry" />
        </mxCell>
        <mxCell id="iCXz8sfgIMaNUe4EF6_P-21" style="edgeStyle=orthogonalEdgeStyle;rounded=0;orthogonalLoop=1;jettySize=auto;html=1;entryX=0.5;entryY=1;entryDx=0;entryDy=0;" edge="1" parent="1" source="iCXz8sfgIMaNUe4EF6_P-20" target="iCXz8sfgIMaNUe4EF6_P-17">
          <mxGeometry relative="1" as="geometry" />
        </mxCell>
        <mxCell id="iCXz8sfgIMaNUe4EF6_P-20" value="Tool Execution" style="rounded=0;whiteSpace=wrap;html=1;" vertex="1" parent="1">
          <mxGeometry x="10" y="265" width="130" height="40" as="geometry" />
        </mxCell>
        <mxCell id="iCXz8sfgIMaNUe4EF6_P-22" value="&lt;font style=&quot;font-size: 10px;&quot;&gt;Tool Result&lt;/font&gt;" style="text;html=1;strokeColor=none;fillColor=none;align=center;verticalAlign=middle;whiteSpace=wrap;rounded=0;" vertex="1" parent="1">
          <mxGeometry x="80" y="220" width="60" height="30" as="geometry" />
        </mxCell>
        <mxCell id="iCXz8sfgIMaNUe4EF6_P-23" value="&lt;b&gt;System Prompt&lt;/b&gt;" style="text;html=1;strokeColor=none;fillColor=none;align=center;verticalAlign=middle;whiteSpace=wrap;rounded=0;fontSize=9;" vertex="1" parent="1">
          <mxGeometry x="200" y="100" width="70" height="10" as="geometry" />
        </mxCell>
        <mxCell id="iCXz8sfgIMaNUe4EF6_P-26" style="edgeStyle=orthogonalEdgeStyle;rounded=0;orthogonalLoop=1;jettySize=auto;html=1;entryX=0.5;entryY=0;entryDx=0;entryDy=0;" edge="1" parent="1" source="iCXz8sfgIMaNUe4EF6_P-24" target="iCXz8sfgIMaNUe4EF6_P-17">
          <mxGeometry relative="1" as="geometry" />
        </mxCell>
        <mxCell id="iCXz8sfgIMaNUe4EF6_P-24" value="" style="rounded=0;whiteSpace=wrap;html=1;" vertex="1" parent="1">
          <mxGeometry x="30" y="76" width="90" height="50" as="geometry" />
        </mxCell>
        <mxCell id="iCXz8sfgIMaNUe4EF6_P-25" value="&lt;b&gt;User Input&lt;/b&gt;&lt;br&gt;&quot;What is...&quot;" style="text;html=1;strokeColor=none;fillColor=none;align=center;verticalAlign=middle;whiteSpace=wrap;rounded=0;fontSize=9;" vertex="1" parent="1">
          <mxGeometry x="40" y="96" width="70" height="10" as="geometry" />
        </mxCell>
        <mxCell id="iCXz8sfgIMaNUe4EF6_P-29" style="edgeStyle=orthogonalEdgeStyle;rounded=0;orthogonalLoop=1;jettySize=auto;html=1;entryX=0.5;entryY=1;entryDx=0;entryDy=0;" edge="1" parent="1" source="iCXz8sfgIMaNUe4EF6_P-28" target="iCXz8sfgIMaNUe4EF6_P-20">
          <mxGeometry relative="1" as="geometry" />
        </mxCell>
        <mxCell id="iCXz8sfgIMaNUe4EF6_P-28" value="Functions" style="rounded=0;whiteSpace=wrap;html=1;" vertex="1" parent="1">
          <mxGeometry x="10" y="330" width="130" height="40" as="geometry" />
        </mxCell>
        <mxCell id="iCXz8sfgIMaNUe4EF6_P-31" style="edgeStyle=orthogonalEdgeStyle;rounded=0;orthogonalLoop=1;jettySize=auto;html=1;entryX=0.5;entryY=1;entryDx=0;entryDy=0;" edge="1" parent="1" source="iCXz8sfgIMaNUe4EF6_P-30" target="iCXz8sfgIMaNUe4EF6_P-28">
          <mxGeometry relative="1" as="geometry" />
        </mxCell>
        <mxCell id="iCXz8sfgIMaNUe4EF6_P-30" value="External Systems" style="rounded=0;whiteSpace=wrap;html=1;" vertex="1" parent="1">
          <mxGeometry x="10" y="390" width="130" height="40" as="geometry" />
        </mxCell>
      </root>
    </mxGraphModel>
  </diagram>
  <diagram id="uztl4Uvhc1k3LFB08V0z" name="ToolUse">
    <mxGraphModel dx="1705" dy="600" grid="1" gridSize="10" guides="1" tooltips="1" connect="1" arrows="1" fold="1" page="1" pageScale="1" pageWidth="850" pageHeight="1100" math="0" shadow="0">
      <root>
        <mxCell id="0" />
        <mxCell id="1" parent="0" />
        <mxCell id="In2A09KIIvk9Iez7GqvI-12" value="" style="rounded=0;whiteSpace=wrap;html=1;" vertex="1" parent="1">
          <mxGeometry x="360" y="338" width="150" height="152" as="geometry" />
        </mxCell>
        <mxCell id="In2A09KIIvk9Iez7GqvI-1" value="Converse API Call" style="rounded=0;whiteSpace=wrap;html=1;" vertex="1" parent="1">
          <mxGeometry x="170" y="240" width="120" height="60" as="geometry" />
        </mxCell>
        <mxCell id="In2A09KIIvk9Iez7GqvI-3" style="edgeStyle=orthogonalEdgeStyle;rounded=0;orthogonalLoop=1;jettySize=auto;html=1;entryX=1;entryY=0.5;entryDx=0;entryDy=0;" edge="1" parent="1" source="In2A09KIIvk9Iez7GqvI-2" target="In2A09KIIvk9Iez7GqvI-1">
          <mxGeometry relative="1" as="geometry" />
        </mxCell>
        <mxCell id="In2A09KIIvk9Iez7GqvI-2" value="toolConfig" style="rounded=0;whiteSpace=wrap;html=1;" vertex="1" parent="1">
          <mxGeometry x="320" y="240" width="120" height="60" as="geometry" />
        </mxCell>
        <mxCell id="In2A09KIIvk9Iez7GqvI-5" style="edgeStyle=orthogonalEdgeStyle;rounded=0;orthogonalLoop=1;jettySize=auto;html=1;entryX=1;entryY=0.5;entryDx=0;entryDy=0;" edge="1" parent="1" source="In2A09KIIvk9Iez7GqvI-4" target="In2A09KIIvk9Iez7GqvI-2">
          <mxGeometry relative="1" as="geometry" />
        </mxCell>
        <mxCell id="In2A09KIIvk9Iez7GqvI-4" value="toolSpec 1 ... n" style="rounded=0;whiteSpace=wrap;html=1;" vertex="1" parent="1">
          <mxGeometry x="470" y="240" width="120" height="60" as="geometry" />
        </mxCell>
        <mxCell id="In2A09KIIvk9Iez7GqvI-6" value="Agent" style="rounded=0;whiteSpace=wrap;html=1;" vertex="1" parent="1">
          <mxGeometry x="150" y="445" width="120" height="60" as="geometry" />
        </mxCell>
        <mxCell id="In2A09KIIvk9Iez7GqvI-9" value="ReadMemory" style="rounded=0;whiteSpace=wrap;html=1;" vertex="1" parent="1">
          <mxGeometry x="380" y="390" width="115" height="30" as="geometry" />
        </mxCell>
        <mxCell id="In2A09KIIvk9Iez7GqvI-10" value="WriteMemory" style="rounded=0;whiteSpace=wrap;html=1;" vertex="1" parent="1">
          <mxGeometry x="380" y="415" width="115" height="30" as="geometry" />
        </mxCell>
        <mxCell id="In2A09KIIvk9Iez7GqvI-11" value="AppendMemory" style="rounded=0;whiteSpace=wrap;html=1;" vertex="1" parent="1">
          <mxGeometry x="380" y="445" width="115" height="30" as="geometry" />
        </mxCell>
        <mxCell id="In2A09KIIvk9Iez7GqvI-13" value="&lt;b&gt;Memory Tool Group&lt;/b&gt;" style="text;html=1;strokeColor=none;fillColor=none;align=center;verticalAlign=middle;whiteSpace=wrap;rounded=0;" vertex="1" parent="1">
          <mxGeometry x="400" y="350" width="67.5" height="30" as="geometry" />
        </mxCell>
        <mxCell id="In2A09KIIvk9Iez7GqvI-19" style="edgeStyle=orthogonalEdgeStyle;rounded=0;orthogonalLoop=1;jettySize=auto;html=1;entryX=1;entryY=0.75;entryDx=0;entryDy=0;" edge="1" parent="1" source="In2A09KIIvk9Iez7GqvI-14" target="In2A09KIIvk9Iez7GqvI-6">
          <mxGeometry relative="1" as="geometry" />
        </mxCell>
        <mxCell id="In2A09KIIvk9Iez7GqvI-14" value="" style="rounded=0;whiteSpace=wrap;html=1;" vertex="1" parent="1">
          <mxGeometry x="358.75" y="510" width="150" height="152" as="geometry" />
        </mxCell>
        <mxCell id="In2A09KIIvk9Iez7GqvI-15" value="InvokeSQLQuery" style="rounded=0;whiteSpace=wrap;html=1;" vertex="1" parent="1">
          <mxGeometry x="378.75" y="562" width="121.25" height="30" as="geometry" />
        </mxCell>
        <mxCell id="In2A09KIIvk9Iez7GqvI-16" value="GetDatabaseSchemas" style="rounded=0;whiteSpace=wrap;html=1;" vertex="1" parent="1">
          <mxGeometry x="378.75" y="587" width="121.25" height="30" as="geometry" />
        </mxCell>
        <mxCell id="In2A09KIIvk9Iez7GqvI-17" value="GetSchemaTables" style="rounded=0;whiteSpace=wrap;html=1;" vertex="1" parent="1">
          <mxGeometry x="378.75" y="617" width="121.25" height="30" as="geometry" />
        </mxCell>
        <mxCell id="In2A09KIIvk9Iez7GqvI-18" value="&lt;b&gt;SQL Tool Group&lt;/b&gt;" style="text;html=1;strokeColor=none;fillColor=none;align=center;verticalAlign=middle;whiteSpace=wrap;rounded=0;" vertex="1" parent="1">
          <mxGeometry x="398.75" y="522" width="67.5" height="30" as="geometry" />
        </mxCell>
        <mxCell id="In2A09KIIvk9Iez7GqvI-20" style="edgeStyle=orthogonalEdgeStyle;rounded=0;orthogonalLoop=1;jettySize=auto;html=1;entryX=0.996;entryY=0.371;entryDx=0;entryDy=0;entryPerimeter=0;" edge="1" parent="1" source="In2A09KIIvk9Iez7GqvI-12" target="In2A09KIIvk9Iez7GqvI-6">
          <mxGeometry relative="1" as="geometry" />
        </mxCell>
        <mxCell id="In2A09KIIvk9Iez7GqvI-23" style="edgeStyle=orthogonalEdgeStyle;rounded=0;orthogonalLoop=1;jettySize=auto;html=1;entryX=1;entryY=0.5;entryDx=0;entryDy=0;" edge="1" parent="1" source="In2A09KIIvk9Iez7GqvI-21" target="In2A09KIIvk9Iez7GqvI-9">
          <mxGeometry relative="1" as="geometry" />
        </mxCell>
        <mxCell id="In2A09KIIvk9Iez7GqvI-21" value="toolSpec" style="rounded=0;whiteSpace=wrap;html=1;" vertex="1" parent="1">
          <mxGeometry x="540" y="370" width="115" height="30" as="geometry" />
        </mxCell>
        <mxCell id="In2A09KIIvk9Iez7GqvI-24" style="edgeStyle=orthogonalEdgeStyle;rounded=0;orthogonalLoop=1;jettySize=auto;html=1;entryX=1;entryY=0.5;entryDx=0;entryDy=0;" edge="1" parent="1" source="In2A09KIIvk9Iez7GqvI-22" target="In2A09KIIvk9Iez7GqvI-9">
          <mxGeometry relative="1" as="geometry" />
        </mxCell>
        <mxCell id="In2A09KIIvk9Iez7GqvI-22" value="callable function" style="rounded=0;whiteSpace=wrap;html=1;" vertex="1" parent="1">
          <mxGeometry x="540" y="410" width="115" height="30" as="geometry" />
        </mxCell>
        <mxCell id="In2A09KIIvk9Iez7GqvI-25" value="Tool Group Instructions" style="rounded=0;whiteSpace=wrap;html=1;" vertex="1" parent="1">
          <mxGeometry x="540" y="330" width="115" height="30" as="geometry" />
        </mxCell>
        <mxCell id="In2A09KIIvk9Iez7GqvI-26" style="edgeStyle=orthogonalEdgeStyle;rounded=0;orthogonalLoop=1;jettySize=auto;html=1;entryX=0.985;entryY=0.151;entryDx=0;entryDy=0;entryPerimeter=0;" edge="1" parent="1" source="In2A09KIIvk9Iez7GqvI-25" target="In2A09KIIvk9Iez7GqvI-12">
          <mxGeometry relative="1" as="geometry" />
        </mxCell>
        <mxCell id="In2A09KIIvk9Iez7GqvI-27" value="(a) Adding tools to Converse API" style="text;html=1;strokeColor=none;fillColor=none;align=center;verticalAlign=middle;whiteSpace=wrap;rounded=0;fontStyle=1" vertex="1" parent="1">
          <mxGeometry x="-10" y="255" width="140" height="30" as="geometry" />
        </mxCell>
        <mxCell id="In2A09KIIvk9Iez7GqvI-28" value="(b) ConverseSQLAgent Implementation" style="text;html=1;strokeColor=none;fillColor=none;align=center;verticalAlign=middle;whiteSpace=wrap;rounded=0;fontStyle=1" vertex="1" parent="1">
          <mxGeometry x="-20" y="460" width="150" height="30" as="geometry" />
        </mxCell>
      </root>
    </mxGraphModel>
  </diagram>
  <diagram id="gBh5pzg0e2ZHigGGSxXO" name="Self Correction">
    <mxGraphModel dx="696" dy="489" grid="1" gridSize="10" guides="1" tooltips="1" connect="1" arrows="1" fold="1" page="1" pageScale="1" pageWidth="850" pageHeight="1100" math="0" shadow="0">
      <root>
        <mxCell id="0" />
        <mxCell id="1" parent="0" />
        <mxCell id="AicCWnV3kmXINOE0g4hc-8" style="edgeStyle=orthogonalEdgeStyle;rounded=0;orthogonalLoop=1;jettySize=auto;html=1;" edge="1" parent="1" source="AicCWnV3kmXINOE0g4hc-1" target="AicCWnV3kmXINOE0g4hc-2">
          <mxGeometry relative="1" as="geometry" />
        </mxCell>
        <mxCell id="AicCWnV3kmXINOE0g4hc-1" value="Agent" style="rounded=0;whiteSpace=wrap;html=1;" vertex="1" parent="1">
          <mxGeometry x="240" y="220" width="120" height="60" as="geometry" />
        </mxCell>
        <mxCell id="AicCWnV3kmXINOE0g4hc-10" style="edgeStyle=orthogonalEdgeStyle;rounded=0;orthogonalLoop=1;jettySize=auto;html=1;entryX=0;entryY=0.5;entryDx=0;entryDy=0;" edge="1" parent="1" source="AicCWnV3kmXINOE0g4hc-2" target="AicCWnV3kmXINOE0g4hc-3">
          <mxGeometry relative="1" as="geometry" />
        </mxCell>
        <mxCell id="AicCWnV3kmXINOE0g4hc-2" value="Invoke SQL" style="rounded=0;whiteSpace=wrap;html=1;" vertex="1" parent="1">
          <mxGeometry x="410" y="220" width="120" height="60" as="geometry" />
        </mxCell>
        <mxCell id="AicCWnV3kmXINOE0g4hc-3" value="Database" style="rounded=0;whiteSpace=wrap;html=1;" vertex="1" parent="1">
          <mxGeometry x="570" y="220" width="120" height="60" as="geometry" />
        </mxCell>
        <mxCell id="AicCWnV3kmXINOE0g4hc-12" style="edgeStyle=orthogonalEdgeStyle;rounded=0;orthogonalLoop=1;jettySize=auto;html=1;entryX=1;entryY=0.5;entryDx=0;entryDy=0;" edge="1" parent="1" source="AicCWnV3kmXINOE0g4hc-5" target="AicCWnV3kmXINOE0g4hc-6">
          <mxGeometry relative="1" as="geometry" />
        </mxCell>
        <mxCell id="AicCWnV3kmXINOE0g4hc-5" value="Error" style="rounded=0;whiteSpace=wrap;html=1;" vertex="1" parent="1">
          <mxGeometry x="410" y="130" width="120" height="60" as="geometry" />
        </mxCell>
        <mxCell id="AicCWnV3kmXINOE0g4hc-7" style="edgeStyle=orthogonalEdgeStyle;rounded=0;orthogonalLoop=1;jettySize=auto;html=1;entryX=0.5;entryY=0;entryDx=0;entryDy=0;" edge="1" parent="1" source="AicCWnV3kmXINOE0g4hc-6" target="AicCWnV3kmXINOE0g4hc-1">
          <mxGeometry relative="1" as="geometry" />
        </mxCell>
        <mxCell id="AicCWnV3kmXINOE0g4hc-6" value="Self-Correction" style="rounded=0;whiteSpace=wrap;html=1;" vertex="1" parent="1">
          <mxGeometry x="240" y="130" width="120" height="60" as="geometry" />
        </mxCell>
        <mxCell id="AicCWnV3kmXINOE0g4hc-11" style="edgeStyle=orthogonalEdgeStyle;rounded=0;orthogonalLoop=1;jettySize=auto;html=1;entryX=1;entryY=0.448;entryDx=0;entryDy=0;entryPerimeter=0;" edge="1" parent="1" source="AicCWnV3kmXINOE0g4hc-3" target="AicCWnV3kmXINOE0g4hc-5">
          <mxGeometry relative="1" as="geometry">
            <Array as="points">
              <mxPoint x="630" y="157" />
            </Array>
          </mxGeometry>
        </mxCell>
      </root>
    </mxGraphModel>
  </diagram>
  <diagram id="vxhALgXz6asdY_EndX1U" name="Memory">
    <mxGraphModel dx="570" dy="400" grid="1" gridSize="10" guides="1" tooltips="1" connect="1" arrows="1" fold="1" page="1" pageScale="1" pageWidth="850" pageHeight="1100" math="0" shadow="0">
      <root>
        <mxCell id="0" />
        <mxCell id="1" parent="0" />
        <mxCell id="8hEj-edELOWs-FeEGMZh-1" value="Agent" style="rounded=0;whiteSpace=wrap;html=1;" vertex="1" parent="1">
          <mxGeometry x="190" y="230" width="120" height="60" as="geometry" />
        </mxCell>
        <mxCell id="8hEj-edELOWs-FeEGMZh-9" style="edgeStyle=orthogonalEdgeStyle;rounded=0;orthogonalLoop=1;jettySize=auto;html=1;entryX=1;entryY=0.5;entryDx=0;entryDy=0;" edge="1" parent="1" source="8hEj-edELOWs-FeEGMZh-2" target="8hEj-edELOWs-FeEGMZh-1">
          <mxGeometry relative="1" as="geometry" />
        </mxCell>
        <mxCell id="8hEj-edELOWs-FeEGMZh-2" value="Main Memory" style="rounded=0;whiteSpace=wrap;html=1;" vertex="1" parent="1">
          <mxGeometry x="350" y="230" width="120" height="60" as="geometry" />
        </mxCell>
        <mxCell id="8hEj-edELOWs-FeEGMZh-6" style="edgeStyle=orthogonalEdgeStyle;rounded=0;orthogonalLoop=1;jettySize=auto;html=1;entryX=1;entryY=0.25;entryDx=0;entryDy=0;" edge="1" parent="1" source="8hEj-edELOWs-FeEGMZh-3" target="8hEj-edELOWs-FeEGMZh-2">
          <mxGeometry relative="1" as="geometry" />
        </mxCell>
        <mxCell id="8hEj-edELOWs-FeEGMZh-3" value="Memory 1&lt;br&gt;&quot;Best Practices&quot;" style="rounded=0;whiteSpace=wrap;html=1;" vertex="1" parent="1">
          <mxGeometry x="510" y="150" width="120" height="60" as="geometry" />
        </mxCell>
        <mxCell id="8hEj-edELOWs-FeEGMZh-7" style="edgeStyle=orthogonalEdgeStyle;rounded=0;orthogonalLoop=1;jettySize=auto;html=1;entryX=1;entryY=0.5;entryDx=0;entryDy=0;" edge="1" parent="1" source="8hEj-edELOWs-FeEGMZh-4" target="8hEj-edELOWs-FeEGMZh-2">
          <mxGeometry relative="1" as="geometry">
            <Array as="points">
              <mxPoint x="500" y="260" />
              <mxPoint x="500" y="260" />
            </Array>
          </mxGeometry>
        </mxCell>
        <mxCell id="8hEj-edELOWs-FeEGMZh-4" value="Memory 2&lt;br&gt;&quot;Error Avoidance&quot;" style="rounded=0;whiteSpace=wrap;html=1;" vertex="1" parent="1">
          <mxGeometry x="510" y="220" width="120" height="60" as="geometry" />
        </mxCell>
        <mxCell id="8hEj-edELOWs-FeEGMZh-5" value="Memory &lt;i&gt;n&lt;/i&gt;" style="rounded=0;whiteSpace=wrap;html=1;" vertex="1" parent="1">
          <mxGeometry x="510" y="360" width="120" height="60" as="geometry" />
        </mxCell>
        <mxCell id="8hEj-edELOWs-FeEGMZh-10" value="&lt;font style=&quot;font-size: 10px;&quot;&gt;Memory Index&lt;/font&gt;" style="text;html=1;strokeColor=none;fillColor=none;align=center;verticalAlign=middle;whiteSpace=wrap;rounded=0;" vertex="1" parent="1">
          <mxGeometry x="370" y="260" width="80" height="30" as="geometry" />
        </mxCell>
        <mxCell id="8hEj-edELOWs-FeEGMZh-12" style="edgeStyle=orthogonalEdgeStyle;rounded=0;orthogonalLoop=1;jettySize=auto;html=1;exitX=0;exitY=0.25;exitDx=0;exitDy=0;entryX=1;entryY=0.75;entryDx=0;entryDy=0;" edge="1" parent="1" source="8hEj-edELOWs-FeEGMZh-11" target="8hEj-edELOWs-FeEGMZh-2">
          <mxGeometry relative="1" as="geometry" />
        </mxCell>
        <mxCell id="8hEj-edELOWs-FeEGMZh-11" value="Memory 3&lt;br&gt;&quot;Database Data Dictionary&quot;" style="rounded=0;whiteSpace=wrap;html=1;" vertex="1" parent="1">
          <mxGeometry x="510" y="290" width="120" height="60" as="geometry" />
        </mxCell>
        <mxCell id="8hEj-edELOWs-FeEGMZh-14" style="edgeStyle=orthogonalEdgeStyle;rounded=0;orthogonalLoop=1;jettySize=auto;html=1;entryX=1.003;entryY=0.892;entryDx=0;entryDy=0;entryPerimeter=0;" edge="1" parent="1" source="8hEj-edELOWs-FeEGMZh-5" target="8hEj-edELOWs-FeEGMZh-2">
          <mxGeometry relative="1" as="geometry">
            <Array as="points">
              <mxPoint x="485" y="390" />
              <mxPoint x="485" y="284" />
            </Array>
          </mxGeometry>
        </mxCell>
      </root>
    </mxGraphModel>
  </diagram>
</mxfile>
